#!OML:ASF H:\Terrain\Patient Classification 1\Walking\steve\steve.ASF
:FULLY-SPECIFIED
:DEGREES
379
root 8.14142 16.5227 14.0851 8.30616 -5.03851 -1.24444
lowerback -2.57352 5.33317 -1.32293
upperback -1.91107 7.13374 -1.75394
thorax -0.464492 3.57196 -0.908037
lowerneck -10.522 -2.02523 -2.49668
upperneck 17.8441 -2.9339 3.2871
head 7.28881 -1.27137 1.20961
rclavicle 3.28989e-014 -1.59028e-015
rhumerus -26.7297 -4.52614 -84.163
rradius 36.511
rwrist -11.0597
rhand -16.9898 -38.0791
rfingers 7.12502
rthumb 9.24519 -67.8564
lclavicle 3.28989e-014 -1.59028e-015
lhumerus -49.5253 23.9447 58.4913
lradius 16.1506
lwrist -7.91597
lhand -21.1863 -12.3242
lfingers 7.12502
lthumb 5.19449 17.5921
rfemur -4.73306 5.50356 21.967
rtibia 53.8797
rfoot 15.638 -4.14338
rtoes 2.90076
lfemur -33.566 1.66128 -21.3007
ltibia 32.6393
lfoot -8.72177 1.25625
ltoes 5.96983
380
root 8.16389 16.5313 14.2296 8.0793 -4.90709 -1.18813
lowerback -2.22265 5.23935 -1.29819
upperback -1.85741 7.00138 -1.70193
thorax -0.608933 3.50595 -0.904032
lowerneck -10.3747 -1.88497 -2.69222
upperneck 17.7675 -2.74619 3.49727
head 7.23726 -1.17781 1.32933
rclavicle 1.45212e-013 -1.82882e-014
rhumerus -27.344 -5.02639 -84.1443
rradius 35.5145
rwrist -10.7247
rhand -17.9622 -37.6332
rfingers 7.12502
rthumb 8.30681 -67.4498
lclavicle 1.45212e-013 -1.82882e-014
lhumerus -48.4989 24.2243 59.2638
lradius 16.2004
lwrist -7.78611
lhand -21.9184 -11.3549
lfingers 7.12502
lthumb 4.4876 18.5775
rfemur -5.75574 5.2848 21.8822
rtibia 55.9107
rfoot 14.1407 -4.4617
rtoes -0.612138
lfemur -32.7277 1.79587 -21.5571
ltibia 32.5155
lfoot -8.86626 0.846182
ltoes 5.02315
381
root 8.18994 16.5491 14.3825 7.96804 -4.73145 -0.97667
lowerback -2.37776 5.0867 -1.48132
upperback -1.64396 6.80858 -1.64499
thorax -0.332754 3.40976 -0.721798
lowerneck -10.4716 -1.70132 -2.65908
upperneck 17.7519 -2.48213 3.41616
head 7.239 -1.05554 1.32163
rclavicle -3.72721e-015 1.23246e-014
rhumerus -28.1062 -5.1851 -84.2442
rradius 35.1925
rwrist -10.8122
rhand -18.7292 -36.4067
rfingers 7.12502
rthumb 7.56653 -66.2513
lclavicle -3.72721e-015 1.23246e-014
lhumerus -47.26 24.8483 60.0716
lradius 15.9377
lwrist -7.97127
lhand -22.6692 -12.1022
lfingers 7.12502
lthumb 3.76255 17.8443
rfemur -6.86872 5.14373 21.5665
rtibia 57.7498
rfoot 11.9377 -5.93265
rtoes 4.15448
lfemur -32.0186 1.59208 -21.9056
ltibia 32.542
lfoot -9.20856 0.625286
ltoes 5.96375
382
root 8.22189 16.5878 14.5393 8.01991 -4.48838 -0.190719
lowerback -2.69525 4.87886 -2.14107
upperback -1.53579 6.556 -1.80779
thorax -0.100356 3.285 -0.4966
lowerneck -10.7753 -1.7005 -2.51034
upperneck 17.9964 -2.44524 3.08305
head 7.36572 -1.05371 1.19056
rclavicle 9.323e-014 -1.74931e-014
rhumerus -28.8955 -5.78997 -84.2897
rradius 34.6356
rwrist -10.3847
rhand -18.487 -35.3478
rfingers 7.12502
rthumb 7.80034 -65.1839
lclavicle 9.323e-014 -1.74931e-014
lhumerus -46.239 25.7278 60.5158
lradius 15.517
lwrist -8.83673
lhand -23.2186 -14.7172
lfingers 7.12502
lthumb 3.23195 15.238
rfemur -8.50168 4.07544 20.6019
rtibia 59.5798
rfoot 10.9888 -4.37372
rtoes -7.70096
lfemur -31.3751 1.32279 -22.9767
ltibia 32.5219
lfoot -9.76423 0.271355
ltoes 6.48983
383
root 8.23233 16.5864 14.6767 7.92198 -4.66649 -0.983655
lowerback -2.22574 4.92856 -1.41432
upperback -1.71225 6.59166 -1.57227
thorax -0.488826 3.3018 -0.707357
lowerneck -10.7955 -1.69032 -2.29129
upperneck 18.2118 -2.40812 2.72923
head 7.43162 -1.05202 1.04247
rclavicle 5.29761e-014 1.11319e-014
rhumerus -30.0935 -6.57592 -84.2673
rradius 34.0296
rwrist -9.60113
rhand -19.2185 -35.3952
rfingers 7.12502
rthumb 7.09421 -65.2563
lclavicle 5.29761e-014 1.11319e-014
lhumerus -45.5519 26.3756 60.6763
lradius 15.2889
lwrist -9.80563
lhand -23.7782 -16.9582
lfingers 7.12502
lthumb 2.69155 13.0046
rfemur -9.76074 4.36825 21.5872
rtibia 61.2207
rfoot 8.8745 -4.0911
rtoes -9.39618
lfemur -30.6976 1.7136 -22.1965
ltibia 32.4461
lfoot -10.135 -0.0457825
ltoes 6.27078
384
root 8.24362 16.5919 14.8079 7.75983 -4.77311 -1.07258
lowerback -1.70878 4.90797 -1.38106
upperback -1.87631 6.54896 -1.51725
thorax -0.948079 3.28203 -0.72985
lowerneck -10.3983 -1.62706 -2.32626
upperneck 18.1114 -2.33973 2.83419
head 7.32767 -1.01603 1.0915
rclavicle -5.65294e-014 -5.96354e-015
rhumerus -31.1925 -6.80087 -84.2771
rradius 33.4932
rwrist -9.11615
rhand -20.0502 -35.6894
rfingers 7.12502
rthumb 6.29139 -65.5759
lclavicle -5.65294e-014 -5.96354e-015
lhumerus -44.6751 26.8437 61.0501
lradius 15.2295
lwrist -10.2366
lhand -24.1441 -16.6684
lfingers 7.12502
lthumb 2.33816 13.2985
rfemur -10.9927 4.44105 21.7055
rtibia 62.7217
rfoot 6.65054 -4.03956
rtoes -8.44296
lfemur -29.8479 1.87272 -22.1605
ltibia 32.0773
lfoot -10.2093 -0.25318
ltoes 6.74618
385
root 8.26455 16.6215 14.9513 7.52864 -4.73842 -0.432185
lowerback -1.62554 4.78212 -1.97288
upperback -1.71459 6.3861 -1.62858
thorax -0.8809 3.20495 -0.520542
lowerneck -10.1906 -1.46946 -2.44349
upperneck 17.8204 -2.14217 3.05803
head 7.19396 -0.912722 1.20282
rclavicle 7.22085e-014 -8.74653e-015
rhumerus -31.6464 -7.3353 -84.1641
rradius 32.5291
rwrist -8.18077
rhand -19.8876 -34.8111
rfingers 7.12502
rthumb 6.44833 -64.6929
lclavicle 7.22085e-014 -8.74653e-015
lhumerus -43.3814 27.5456 61.7537
lradius 15.0822
lwrist -10.5629
lhand -24.3856 -15.4586
lfingers 7.12502
lthumb 2.10492 14.5108
rfemur -12.2346 4.07847 20.8881
rtibia 64.1056
rfoot 4.72025 -4.0682
rtoes -5.80925
lfemur -28.9144 1.85512 -22.9903
ltibia 31.9165
lfoot -10.6625 -0.579022
ltoes 7.26726
386
root 8.28935 16.6585 15.1056 7.23895 -4.69216 -0.00731687
lowerback -1.69536 4.63033 -2.33795
upperback -1.42832 6.19592 -1.64043
thorax -0.584444 3.10945 -0.312309
lowerneck -10.1011 -1.3685 -2.47754
upperneck 17.5826 -1.98043 2.98396
head 7.09575 -0.846066 1.19899
rclavicle 3.52346e-014 6.75868e-015
rhumerus -32.248 -7.27968 -84.3997
rradius 31.8803
rwrist -8.84289
rhand -21.6487 -33.7699
rfingers 7.12502
rthumb 4.74797 -63.6967
lclavicle 3.52346e-014 6.75868e-015
lhumerus -42.0274 28.4949 62.5011
lradius 14.8364
lwrist -10.8573
lhand -24.5378 -15.0358
lfingers 7.12502
lthumb 1.95795 14.9349
rfemur -13.9847 3.09935 20.5496
rtibia 65.0783
rfoot 4.92439 -2.56901
rtoes -24.8897
lfemur -27.7181 1.91923 -23.6111
ltibia 31.4806
lfoot -11.2749 -0.840844
ltoes 6.77723
